<svg width="18" height="10" viewBox="0 0 18 10" fill="none" xmlns="http://www.w3.org/2000/svg">
<path d="M17 6C17.5523 6 18 5.55228 18 5C18 4.44772 17.5523 4 17 4L17 6ZM17 4L4.52616e-07 4L5.01059e-07 6L17 6L17 4Z" fill="#5E5E5E"/>
<path d="M17.7071 5.70711C18.0976 5.31658 18.0976 4.68342 17.7071 4.29289C17.3166 3.90237 16.6834 3.90237 16.2929 4.29289L17.7071 5.70711ZM16.2929 4.29289L12.2929 8.29289L13.7071 9.70711L17.7071 5.70711L16.2929 4.29289Z" fill="#5E5E5E"/>
<path d="M16.2929 5.70711C16.6834 6.09763 17.3166 6.09763 17.7071 5.70711C18.0976 5.31658 18.0976 4.68342 17.7071 4.29289L16.2929 5.70711ZM17.7071 4.29289L13.7071 0.292894L12.2929 1.70711L16.2929 5.70711L17.7071 4.29289Z" fill="#5E5E5E"/>
</svg>
