<svg width="18" height="10" viewBox="0 0 18 10" fill="none" xmlns="http://www.w3.org/2000/svg">
<path d="M1 6C0.447715 6 -1.33771e-08 5.55228 0 5C1.33771e-08 4.44772 0.447715 4 1 4L1 6ZM1 4L18 4L18 6L1 6L1 4Z" fill="#5E5E5E"/>
<path d="M0.292893 5.70711C-0.0976311 5.31658 -0.0976311 4.68342 0.292893 4.29289C0.683418 3.90237 1.31658 3.90237 1.70711 4.29289L0.292893 5.70711ZM1.70711 4.29289L5.70711 8.29289L4.29289 9.70711L0.292893 5.70711L1.70711 4.29289Z" fill="#5E5E5E"/>
<path d="M1.70711 5.70711C1.31658 6.09763 0.683418 6.09763 0.292893 5.70711C-0.0976311 5.31658 -0.0976311 4.68342 0.292893 4.29289L1.70711 5.70711ZM0.292893 4.29289L4.29289 0.292894L5.70711 1.70711L1.70711 5.70711L0.292893 4.29289Z" fill="#5E5E5E"/>
</svg>
