<svg xmlns="http://www.w3.org/2000/svg" width="30.415" height="30.416" viewBox="0 0 30.415 30.416"
  class="icon">
  <g id="Group_672" data-name="Group 672" transform="translate(-80 -81)">
    <g id="Group_670" data-name="Group 670" transform="translate(80 81)">
      <path id="Path_42" data-name="Path 42"
        d="M22.6,30.416H7.818A7.826,7.826,0,0,1,0,22.6V7.814A7.825,7.825,0,0,1,7.818,0H22.6a7.825,7.825,0,0,1,7.818,7.814V22.6A7.826,7.826,0,0,1,22.6,30.416ZM7.818,2.379A5.442,5.442,0,0,0,2.379,7.814V22.6a5.444,5.444,0,0,0,5.438,5.438H22.6A5.444,5.444,0,0,0,28.035,22.6V7.814A5.442,5.442,0,0,0,22.6,2.379Z"
        transform="translate(0)" fill="#fff"></path>
      <path id="Path_43" data-name="Path 43"
        d="M28.519,19.374A6.424,6.424,0,1,0,22.1,25.795a6.424,6.424,0,0,0,6.424-6.421Zm.849-8.49a1.261,1.261,0,1,0,1.262,1.262,1.263,1.263,0,0,0-1.262-1.262Zm-11.636,8.49A4.363,4.363,0,1,1,22.1,23.736a4.365,4.365,0,0,1-4.363-4.362Z"
        transform="translate(-7.064 -3.976)" fill="#fff" fill-rule="evenodd"></path>
    </g>
  </g>
</svg>