<svg xmlns="http://www.w3.org/2000/svg" width="32.971" height="31.416" viewBox="0 0 32.971 31.416">
  <path id="Path_242" data-name="Path 242" d="M399.62,280.312c0-7.377-7.4-13.378-16.486-13.378s-16.485,6-16.485,13.378c0,6.613,5.865,12.152,13.787,13.2.536.116,1.267.354,1.452.813a3.39,3.39,0,0,1,.053,1.491s-.193,1.163-.235,1.411c-.072.417-.331,1.63,1.428.889s9.494-5.59,12.953-9.571h0A11.9,11.9,0,0,0,399.62,280.312Zm-22.3,3.938a.321.321,0,0,1-.32.321h-4.62a.319.319,0,0,1-.222-.089l0,0,0,0a.319.319,0,0,1-.09-.222h0v-7.182a.321.321,0,0,1,.321-.321h1.157a.321.321,0,0,1,.321.321v5.7H377a.321.321,0,0,1,.32.321Zm2.788,0a.321.321,0,0,1-.321.32h-1.156a.321.321,0,0,1-.321-.32v-7.183a.321.321,0,0,1,.321-.32h1.156a.321.321,0,0,1,.321.32Zm7.959,0a.321.321,0,0,1-.321.32h-1.156a.325.325,0,0,1-.082-.011H386.5l-.022-.007-.009,0-.016-.007-.015-.007-.009-.005-.02-.012,0,0a.324.324,0,0,1-.082-.079l-3.3-4.451v4.266a.321.321,0,0,1-.321.32h-1.156a.321.321,0,0,1-.321-.32v-7.183a.321.321,0,0,1,.321-.32h1.184l.016,0,.014,0,.019,0,.011,0,.019.006.011,0,.019.008.01,0,.017.009.01.006.017.012.008.006.017.014.006.005a.215.215,0,0,1,.019.02l0,0a.341.341,0,0,1,.025.033l3.292,4.445v-4.268a.321.321,0,0,1,.321-.32h1.156a.321.321,0,0,1,.321.32Zm6.385-6.026a.321.321,0,0,1-.321.321h-3.142v1.214h3.142a.321.321,0,0,1,.321.322v1.156a.321.321,0,0,1-.321.321h-3.142v1.214h3.142a.321.321,0,0,1,.321.321v1.156a.321.321,0,0,1-.321.321h-4.62a.319.319,0,0,1-.222-.09l0,0,0,0a.318.318,0,0,1-.09-.222h0v-7.182h0a.319.319,0,0,1,.089-.221l.005-.006,0,0a.318.318,0,0,1,.223-.09h4.62a.321.321,0,0,1,.321.321Z" transform="translate(-366.649 -266.934)" fill="#fff"></path>
</svg>